<svg width="590" height="1452" viewBox="0 0 590 1452" fill="none" xmlns="http://www.w3.org/2000/svg">
<path d="M6.10352e-05 1451L590 1451L590 -0.00012207L6.58153e-05 -0.00017365L6.10352e-05 1451Z" fill="#E0E0E0"/>
<rect x="0.5" y="1351.71" width="99" height="99" stroke="#C2C2C2"/>
<rect x="99.5" y="1351.71" width="99" height="99" stroke="#C2C2C2"/>
<rect x="198.5" y="1351.71" width="99" height="99" stroke="#C2C2C2"/>
<rect x="297.5" y="1351.71" width="99" height="99" stroke="#C2C2C2"/>
<rect x="396.5" y="1351.71" width="99" height="99" stroke="#C2C2C2"/>
<path d="M495.5 1351.5H589.5V1450.5H495.5V1351.5Z" stroke="#C2C2C2"/>
<rect x="0.5" y="1252.68" width="99" height="99" stroke="#C2C2C2"/>
<rect x="99.5" y="1252.68" width="99" height="99" stroke="#C2C2C2"/>
<rect x="198.5" y="1252.68" width="99" height="99" stroke="#C2C2C2"/>
<rect x="297.5" y="1252.68" width="99" height="99" stroke="#C2C2C2"/>
<rect x="396.5" y="1252.68" width="99" height="99" stroke="#C2C2C2"/>
<path d="M495.5 1252.5H589.5V1351.5H495.5V1252.5Z" stroke="#C2C2C2"/>
<rect x="0.5" y="1153.65" width="99" height="99" stroke="#C2C2C2"/>
<rect x="99.5" y="1153.65" width="99" height="99" stroke="#C2C2C2"/>
<rect x="198.5" y="1153.65" width="99" height="99" stroke="#C2C2C2"/>
<rect x="297.5" y="1153.65" width="99" height="99" stroke="#C2C2C2"/>
<rect x="396.5" y="1153.65" width="99" height="99" stroke="#C2C2C2"/>
<path d="M495.5 1153.5H589.5V1252.5H495.5V1153.5Z" stroke="#C2C2C2"/>
<rect x="0.5" y="1054.63" width="99" height="99" stroke="#C2C2C2"/>
<rect x="99.5" y="1054.63" width="99" height="99" stroke="#C2C2C2"/>
<rect x="198.5" y="1054.63" width="99" height="99" stroke="#C2C2C2"/>
<rect x="297.5" y="1054.63" width="99" height="99" stroke="#C2C2C2"/>
<rect x="396.5" y="1054.63" width="99" height="99" stroke="#C2C2C2"/>
<path d="M495.5 1054.5H589.5V1153.5H495.5V1054.5Z" stroke="#C2C2C2"/>
<rect x="0.5" y="955.603" width="99" height="99" stroke="#C2C2C2"/>
<rect x="99.5" y="955.603" width="99" height="99" stroke="#C2C2C2"/>
<rect x="198.5" y="955.603" width="99" height="99" stroke="#C2C2C2"/>
<rect x="297.5" y="955.603" width="99" height="99" stroke="#C2C2C2"/>
<rect x="396.5" y="955.603" width="99" height="99" stroke="#C2C2C2"/>
<path d="M495.5 955.5H589.5V1054.5H495.5V955.5Z" stroke="#C2C2C2"/>
<rect x="0.5" y="856.577" width="99" height="99" stroke="#C2C2C2"/>
<rect x="99.5" y="856.577" width="99" height="99" stroke="#C2C2C2"/>
<rect x="198.5" y="856.577" width="99" height="99" stroke="#C2C2C2"/>
<rect x="297.5" y="856.577" width="99" height="99" stroke="#C2C2C2"/>
<rect x="396.5" y="856.577" width="99" height="99" stroke="#C2C2C2"/>
<path d="M495.5 856.5H589.5V955.5H495.5V856.5Z" stroke="#C2C2C2"/>
<rect x="0.5" y="757.552" width="99" height="99" stroke="#C2C2C2"/>
<rect x="99.5" y="757.552" width="99" height="99" stroke="#C2C2C2"/>
<rect x="198.5" y="757.552" width="99" height="99" stroke="#C2C2C2"/>
<rect x="297.5" y="757.552" width="99" height="99" stroke="#C2C2C2"/>
<rect x="396.5" y="757.552" width="99" height="99" stroke="#C2C2C2"/>
<path d="M495.5 757.5H589.5V856.5H495.5V757.5Z" stroke="#C2C2C2"/>
<rect x="0.5" y="658.526" width="99" height="99" stroke="#C2C2C2"/>
<rect x="99.5" y="658.526" width="99" height="99" stroke="#C2C2C2"/>
<rect x="198.5" y="658.526" width="99" height="99" stroke="#C2C2C2"/>
<rect x="297.5" y="658.526" width="99" height="99" stroke="#C2C2C2"/>
<rect x="396.5" y="658.526" width="99" height="99" stroke="#C2C2C2"/>
<path d="M495.5 658.5H589.5V757.5H495.5V658.5Z" stroke="#C2C2C2"/>
<rect x="0.5" y="559.706" width="99" height="99" stroke="#C2C2C2"/>
<rect x="99.5" y="559.706" width="99" height="99" stroke="#C2C2C2"/>
<rect x="198.5" y="559.706" width="99" height="99" stroke="#C2C2C2"/>
<rect x="297.5" y="559.706" width="99" height="99" stroke="#C2C2C2"/>
<rect x="396.5" y="559.706" width="99" height="99" stroke="#C2C2C2"/>
<path d="M495.5 559.5H589.5V658.5H495.5V559.5Z" stroke="#C2C2C2"/>
<rect x="0.5" y="460.68" width="99" height="99" stroke="#C2C2C2"/>
<rect x="99.5" y="460.68" width="99" height="99" stroke="#C2C2C2"/>
<rect x="198.5" y="460.68" width="99" height="99" stroke="#C2C2C2"/>
<rect x="297.5" y="460.68" width="99" height="99" stroke="#C2C2C2"/>
<rect x="396.5" y="460.68" width="99" height="99" stroke="#C2C2C2"/>
<path d="M495.5 460.5H589.5V559.5H495.5V460.5Z" stroke="#C2C2C2"/>
<rect x="0.5" y="361.655" width="99" height="99" stroke="#C2C2C2"/>
<rect x="99.5" y="361.655" width="99" height="99" stroke="#C2C2C2"/>
<rect x="198.5" y="361.655" width="99" height="99" stroke="#C2C2C2"/>
<rect x="297.5" y="361.655" width="99" height="99" stroke="#C2C2C2"/>
<rect x="396.5" y="361.655" width="99" height="99" stroke="#C2C2C2"/>
<path d="M495.5 361.5H589.5V460.5H495.5V361.5Z" stroke="#C2C2C2"/>
<rect x="0.5" y="262.629" width="99" height="99" stroke="#C2C2C2"/>
<rect x="99.5" y="262.629" width="99" height="99" stroke="#C2C2C2"/>
<rect x="198.5" y="262.629" width="99" height="99" stroke="#C2C2C2"/>
<rect x="297.5" y="262.629" width="99" height="99" stroke="#C2C2C2"/>
<rect x="396.5" y="262.629" width="99" height="99" stroke="#C2C2C2"/>
<path d="M495.5 262.5H589.5V361.5H495.5V262.5Z" stroke="#C2C2C2"/>
<rect x="0.5" y="163.603" width="99" height="99" stroke="#C2C2C2"/>
<rect x="99.5" y="163.603" width="99" height="99" stroke="#C2C2C2"/>
<rect x="198.5" y="163.603" width="99" height="99" stroke="#C2C2C2"/>
<rect x="297.5" y="163.603" width="99" height="99" stroke="#C2C2C2"/>
<rect x="396.5" y="163.603" width="99" height="99" stroke="#C2C2C2"/>
<path d="M495.5 163.5H589.5V262.5H495.5V163.5Z" stroke="#C2C2C2"/>
<rect x="0.5" y="64.5773" width="99" height="99" stroke="#C2C2C2"/>
<rect x="99.5" y="64.5773" width="99" height="99" stroke="#C2C2C2"/>
<rect x="198.5" y="64.5773" width="99" height="99" stroke="#C2C2C2"/>
<rect x="297.5" y="64.5773" width="99" height="99" stroke="#C2C2C2"/>
<rect x="396.5" y="64.5773" width="99" height="99" stroke="#C2C2C2"/>
<path d="M495.5 64.5H589.5V163.5H495.5V64.5Z" stroke="#C2C2C2"/>
<rect x="0.5" y="0.5177" width="99" height="64.0346" stroke="#C2C2C2"/>
<rect x="99.5" y="0.5177" width="99" height="64.0346" stroke="#C2C2C2"/>
<rect x="198.5" y="0.5177" width="99" height="64.0346" stroke="#C2C2C2"/>
<rect x="297.5" y="0.5177" width="99" height="64.0346" stroke="#C2C2C2"/>
<rect x="396.5" y="0.5177" width="99" height="64.0346" stroke="#C2C2C2"/>
<path d="M495.5 0.5H589.5V64.5H495.5V0.5Z" stroke="#C2C2C2"/>
<path d="M0 0H75V1451H0V0Z" fill="#FFCDCD" fill-opacity="0.33"/>
</svg>
